<?xml version="1.0" encoding="UTF-8"?>
<svg version="1.1" xmlns="http://www.w3.org/2000/svg" width="2986" height="2879">
<path d="M0 0 C2.74988761 1.53870882 5.50604076 3.06574016 8.26269531 4.59228516 C30.9808409 17.23929548 53.05036914 30.99498784 75.05175781 44.84082031 C77.58634217 46.43546578 80.123432 48.02604322 82.66113281 49.61572266 C94.248318 56.88797933 105.72061147 64.33156468 117.15478516 71.84179688 C119.44669183 73.34003671 121.74796581 74.8216739 124.05566406 76.29541016 C132.35641888 81.63776083 139.77450589 87.61415503 147.16308594 94.15136719 C149.47936798 96.17420614 151.86364882 98.10824017 154.25488281 100.04150391 C164.96522523 108.76323012 175.26407454 117.84451871 185.31347656 127.31884766 C188.01848155 129.86538206 190.77335626 132.34253724 193.56738281 134.79150391 C198.52730015 139.22536941 203.23163507 143.90893174 207.94238281 148.60400391 C208.70333252 149.36036133 209.46428223 150.11671875 210.24829102 150.89599609 C214.95549555 155.61604359 219.43383302 160.46667027 223.75488281 165.54150391 C224.27783936 166.14712158 224.8007959 166.75273926 225.33959961 167.37670898 C240.24045735 184.74194835 255.14064224 204.63715372 253.75488281 228.54150391 C250.97080333 253.73742324 238.85790673 276.59333482 227.56884766 298.88330078 C186.44458474 380.1174146 189.21457014 491.49497483 185.62988281 580.29150391 C185.59127136 581.2408783 185.55265991 582.19025269 185.51287842 583.168396 C183.0309774 645.18075548 182.66268825 707.28231653 182.69851947 769.33668876 C182.70024644 772.61109977 182.70117478 775.88551027 182.70193672 779.15992165 C182.719222 843.73021276 182.93222051 908.30027422 183.13546392 972.87019031 C183.17644386 985.90425862 183.21510329 998.93833218 183.25219727 1011.97241211 C183.48890593 1094.98564637 183.82072356 1177.99739682 185.6306572 1401.00144958 C185.68388225 1406.14670075 185.73643112 1411.2919586 185.78879994 1416.43721855 C186.63732967 1499.78920212 187.60189206 1583.13938798 189.51269531 1694.70166016 C189.52921906 1695.6490495 189.5457428 1696.59643884 189.56276727 1697.57253695 C189.90409434 1717.13259343 190.24930761 1736.69257337 190.6072855 1756.25233269 C191.46516304 1803.12659632 192.17172441 1850.00014449 192.66289759 1896.8797462 C192.73573555 1903.8068517 192.81282257 1910.73390325 192.89105225 1917.66094971 C193.79137417 1997.86281502 193.94366997 2078.06026873 193.94007112 2158.26622285 C193.93965314 2172.09731495 193.94940891 2185.92838059 193.96332391 2199.759465 C193.97778248 2214.25224676 193.98459044 2228.74501558 193.98373014 2243.23780471 C193.98340374 2251.26110965 193.98596015 2259.28438576 193.99690819 2267.30768394 C194.07993382 2331.11107023 194.07993382 2331.11107023 191.75488281 2362.54150391 C191.67277085 2363.67719598 191.59065889 2364.81288805 191.50605869 2365.98299503 C191.05260583 2372.17654839 190.53269484 2378.35953934 189.94238281 2384.54150391 C189.8584024 2385.44009125 189.774422 2386.33867859 189.68789673 2387.26449585 C185.65833533 2430.1680215 179.02079804 2472.67059913 168.75488281 2514.54150391 C168.46033203 2515.74436035 168.16578125 2516.9472168 167.86230469 2518.18652344 C156.72292174 2563.02675017 140.96791761 2606.45657271 119.77929688 2647.55029297 C119.06547486 2648.93778876 118.35688416 2650.32798309 117.65234375 2651.72021484 C102.14504227 2682.35467263 82.62083117 2710.95027077 60.16259766 2736.90722656 C58.64770799 2738.66592782 57.14764256 2740.4365612 55.64941406 2742.20947266 C51.03659756 2747.65559517 46.45267669 2753.03217751 41.30957031 2757.99072266 C39.63060097 2759.66547348 38.10450991 2761.42343117 36.56738281 2763.22900391 C29.87905451 2770.97179838 22.5089877 2778.23595556 14.71191406 2784.85791016 C13.33065947 2786.04617508 11.97599132 2787.26568583 10.64160156 2788.50634766 C-16.06567692 2813.32840648 -48.6115738 2833.12164971 -84.24511719 2841.54150391 C-85.73978516 2841.91082031 -85.73978516 2841.91082031 -87.26464844 2842.28759766 C-106.56320287 2846.29087433 -126.59278482 2844.46724234 -143.24511719 2833.54150391 C-146.70323361 2831.01104912 -149.98903114 2828.32545748 -153.24511719 2825.54150391 C-153.95667969 2824.95240234 -154.66824219 2824.36330078 -155.40136719 2823.75634766 C-160.18251767 2819.71995331 -164.27080023 2815.36581928 -168.24511719 2810.54150391 C-168.66776855 2810.03651367 -169.09041992 2809.53152344 -169.52587891 2809.01123047 C-176.08071992 2801.15819783 -182.01471739 2793.06952079 -187.61206055 2784.51000977 C-204.80237072 2758.33278595 -224.73857296 2733.53322419 -244.55786133 2709.3046875 C-248.05142774 2705.02996754 -251.47903889 2700.71032388 -254.87011719 2696.35400391 C-259.31541376 2690.65265541 -263.93432578 2685.1212059 -268.62792969 2679.62353516 C-271.04008243 2676.79467378 -273.39931717 2673.92575269 -275.74511719 2671.04150391 C-279.49132563 2666.43901924 -283.31034506 2661.9042798 -287.15478516 2657.3840332 C-290.10470623 2653.90907367 -293.00176125 2650.39697318 -295.87011719 2646.85400391 C-299.44561133 2642.45780025 -303.18602928 2638.25164532 -307.00292969 2634.06494141 C-309.29027622 2631.49068032 -311.4605999 2628.84860901 -313.62011719 2626.16650391 C-317.78073793 2621.02391847 -322.18868023 2616.16698654 -326.68261719 2611.31884766 C-329.34378063 2608.43456837 -331.93210727 2605.49813257 -334.50292969 2602.53369141 C-336.56012117 2600.18129755 -338.65108633 2597.86115425 -340.74511719 2595.54150391 C-343.4349515 2592.5608767 -346.10822083 2589.56905158 -348.74511719 2586.54150391 C-352.85594146 2581.82447513 -357.05253979 2577.18580682 -361.24511719 2572.54150391 C-362.74540398 2570.8750954 -364.24540591 2569.20843038 -365.74511719 2567.54150391 C-366.49148438 2566.71263672 -367.23785156 2565.88376953 -368.00683594 2565.02978516 C-369.46950973 2563.40374116 -370.93052051 2561.77619928 -372.38964844 2560.14697266 C-378.09846824 2553.7798385 -383.88768303 2547.49026861 -389.69677734 2541.21484375 C-392.21548753 2538.49279399 -394.73013271 2535.7669955 -397.24511719 2533.04150391 C-398.2450969 2531.95815184 -399.24509692 2530.87481853 -400.24511719 2529.79150391 C-406.24511719 2523.2915039 -406.24511719 2523.2915039 -407.74609375 2521.6652832 C-408.7426221 2520.58581903 -409.7393657 2519.50655353 -410.73632812 2518.42749023 C-413.29127757 2515.66157783 -415.8419918 2512.89194094 -418.38574219 2510.11572266 C-423.31160304 2504.7468804 -428.27193861 2499.46092906 -433.46777344 2494.35009766 C-435.22920849 2492.55769231 -436.8647852 2490.70333207 -438.49511719 2488.79150391 C-441.58073331 2485.1963365 -444.87709342 2481.86812603 -448.24511719 2478.54150391 C-452.12241326 2474.71163653 -455.80755339 2470.82099073 -459.33886719 2466.66650391 C-462.32389768 2463.33892893 -465.51946627 2460.22372784 -468.71972656 2457.10400391 C-471.34873708 2454.52062374 -473.83000931 2451.88456098 -476.21386719 2449.07275391 C-482.00827186 2442.37416741 -488.45370012 2436.26730401 -494.74511719 2430.04150391 C-509.54016179 2415.40076571 -509.54016179 2415.40076571 -514.70068359 2409.31738281 C-517.69293434 2405.87672017 -520.95051629 2402.69240412 -524.18261719 2399.47900391 C-525.17938477 2398.47643555 -525.17938477 2398.47643555 -526.19628906 2397.45361328 C-530.10708338 2393.55040537 -534.13335778 2389.85191084 -538.31420898 2386.2409668 C-570.75604136 2357.68772427 -570.75604136 2357.68772427 -572.62011719 2339.97900391 C-572.24511719 2336.54150391 -572.24511719 2336.54150391 -570.62011719 2334.22900391 C-564.0354477 2329.55042295 -556.53974698 2330.1564791 -548.80761719 2330.16650391 C-547.52097168 2330.16811523 -546.23432617 2330.16972656 -544.90869141 2330.17138672 C-533.07185574 2330.32068278 -521.75139352 2331.81099895 -510.24511719 2334.54150391 C-509.22192383 2334.78094727 -508.19873047 2335.02039062 -507.14453125 2335.26708984 C-495.63006008 2338.14813822 -484.49234876 2342.12806622 -473.29785156 2346.04769897 C-468.41835551 2347.75600042 -463.53466151 2349.4521455 -458.65112305 2351.14884949 C-456.14783873 2352.01858758 -453.64474669 2352.88887926 -451.1418457 2353.75971985 C-439.52638696 2357.79909451 -427.89007399 2361.77559687 -416.24511719 2365.72900391 C-415.28916656 2366.05359589 -414.33321594 2366.37818787 -413.34829712 2366.71261597 C-407.57522761 2368.67274464 -407.57522761 2368.67274464 -401.80195618 2370.63227844 C-395.16830485 2372.88461076 -388.53973255 2375.15146819 -381.91308594 2377.42431641 C-325.15235022 2396.87854449 -268.16775683 2416.39862292 -210.18261719 2431.91650391 C-209.35398163 2432.13838379 -208.52534607 2432.36026367 -207.67160034 2432.58886719 C-182.22095705 2440.92110715 -182.22095705 2440.92110715 -156.99902344 2437.38525391 C-121.45219144 2415.20698784 -110.9566674 2360.3775948 -101.24511719 2322.54150391 C-100.94089844 2321.3678125 -100.63667969 2320.19412109 -100.32324219 2318.98486328 C-79.83915291 2238.06304833 -79.98051737 2147.95526605 -60.24511719 1557.54150391 C-60.22374569 1556.06346031 -60.22374569 1556.06346031 -60.20194244 1554.55555725 C-60.16152294 1551.74911899 -60.12143696 1548.94267624 -60.08154297 1546.13623047 C-60.06497052 1544.9767219 -60.06497052 1544.9767219 -60.04806328 1543.79378891 C-59.82767474 1528.13264168 -59.64207029 1512.47117741 -59.48022461 1496.80932617 C-59.36639154 1485.83530612 -59.25067481 1474.86133781 -59.11927795 1463.88751221 C-57.95607966 1366.17510877 -58.05680172 1268.45801713 -58.05992948 1170.74022249 C-58.06031491 1152.75747145 -58.05241309 1134.77473816 -58.03930664 1116.79199219 C-57.84873562 965.37203352 -57.84873562 965.37203352 -60.24511719 807.54150391 C-60.27252322 806.37919817 -60.29992925 805.21689243 -60.32816577 804.01936531 C-61.89901679 737.49529247 -64.05578283 671.00885362 -67.24511719 604.54150391 C-67.2849044 603.71146347 -67.32469162 602.88142303 -67.36568451 602.02622986 C-71.69523923 511.9724961 -77.64349614 421.59112171 -97.24511719 292.54150391 C-97.37102234 291.83314392 -97.49692749 291.12478394 -97.62664795 290.3949585 C-100.85820668 272.41278835 -108.48590828 257.64690186 -123.42089844 246.43994141 C-150.80989828 228.02907844 -185.07671902 223.21367159 -217.43652344 223.24072266 C-219.0486009 223.23561039 -220.6606768 223.22998525 -222.27275085 223.22389221 C-226.56234353 223.21164087 -230.85177615 223.21468788 -235.14137268 223.22364807 C-237.83387392 223.22905665 -240.52636639 223.23144866 -243.21887207 223.23352051 C-277.63224445 223.27464638 -311.89924918 224.380305 -346.24511719 226.54150391 C-347.40521301 226.61411438 -348.56530884 226.68672485 -349.76055908 226.76153564 C-432.84434908 232.02250229 -515.46081502 242.5162553 -597.59020996 255.94500732 C-600.86665184 256.47973673 -604.14403018 257.00813508 -607.421875 257.53417969 C-645.07347721 263.61599735 -682.15193911 272.76173132 -719.24511719 281.54150391 C-720.50043495 281.83845406 -720.50043495 281.83845406 -721.78111267 282.1414032 C-792.49434658 298.87128613 -863.08527486 316.13302778 -932.80761719 336.66650391 C-933.70773529 336.93077179 -934.60785339 337.19503967 -935.5352478 337.46731567 C-949.13127619 341.47013133 -962.55521816 345.59736471 -975.37011719 351.72900391 C-987.98806828 357.5716395 -1001.07826993 362.10655051 -1014.24511719 366.54150391 C-1015.07140625 366.82010254 -1015.89769531 367.09870117 -1016.74902344 367.38574219 C-1083.67323893 389.51922043 -1148.82904354 374.6901391 -1210.37695312 343.99511719 C-1226.24344048 335.95382797 -1241.35925238 326.63156609 -1256.04125977 316.60107422 C-1261.62193381 312.7956967 -1267.23514711 309.37923389 -1273.24511719 306.29150391 C-1298.15535209 293.47473961 -1321.77521967 277.70984724 -1342.24511719 258.54150391 C-1342.76009766 258.06583984 -1343.27507812 257.59017578 -1343.80566406 257.10009766 C-1357.53222917 244.33651393 -1369.82342987 228.44473061 -1370.62011719 208.97900391 C-1370.45881697 202.10951231 -1368.13099883 198.15589632 -1363.30761719 193.41650391 C-1345.13506345 178.94791016 -1313.7701351 180.4977558 -1291.70629883 179.82315063 C-1205.75895653 177.0905722 -1119.81352674 169.04700417 -760.92922497 122.59160805 C-756.24745824 121.8548179 -751.56468528 121.12498331 -746.88085938 120.40136719 C-656.92011101 106.47103814 -567.42609838 87.3662027 -226.23989868 -1.09283447 C-139.85960276 -28.86163084 -83.02259868 -46.45908103 0 0 Z " fill="#3F83F3" transform="translate(2732.2451171875,35.45849609375)"/>
<path d="M0 0 C0.9290918 0.29600098 1.85818359 0.59200195 2.81542969 0.89697266 C44.46039656 14.33106706 84.50733871 34.42011435 120 60 C120.66580078 60.47646973 121.33160156 60.95293945 122.01757812 61.44384766 C131.05561632 67.94395332 139.51527659 74.80909804 147.50927734 82.56054688 C148.94522242 83.94710635 150.40387656 85.31002942 151.86328125 86.671875 C167.34011652 101.47009373 180.39665811 120.55360694 181.375 142.625 C179.94704112 176.70975756 146.44152137 210.64004719 123.18017578 232.72802734 C121.50417961 234.26659277 119.81803219 235.79271655 118.125 237.3125 C76.43181918 275.0309899 59.05852798 339.32125869 45 392 C44.68643555 393.16660156 44.37287109 394.33320312 44.04980469 395.53515625 C35.49240711 427.6839204 28.87777234 460.38471857 23.07299805 493.13278198 C22.74595434 494.96962665 22.41314926 496.80546048 22.07299805 498.6399231 C19.85093839 510.7092653 18.59871296 522.79652219 17.71865845 535.02850342 C17.59273146 536.74328269 17.46673879 538.45805714 17.34069026 540.17282748 C15.23620694 569.02498623 13.32377093 597.89154656 11.37110533 626.75428752 C10.73096154 636.21551756 10.08909338 645.67663044 9.4471858 655.13774095 C8.26301691 672.59189751 7.08013599 690.04614112 5.89799118 707.50043488 C4.72895751 724.76099862 3.55923952 742.02151579 2.38866043 759.28197479 C2.3155354 760.36022055 2.24241036 761.4384663 2.16706941 762.54938616 C1.79559624 768.02677432 1.42410908 773.50416153 1.05261524 778.98154828 C0.29766839 790.11270292 -0.457186 801.24386382 -1.21201134 812.3750267 C-1.28753324 813.48872334 -1.36305515 814.60241998 -1.4408656 815.749865 C-3.23305661 842.17906384 -5.02430439 868.60832658 -6.81542969 895.03759766 C-6.89367693 896.19218524 -6.97192418 897.34677282 -7.05254255 898.53634791 C-7.44848966 904.37879824 -7.84443559 910.22124866 -8.24038091 916.06369911 C-8.31891897 917.22258322 -8.39745704 918.38146733 -8.47837504 919.57546913 C-8.63715751 921.91841778 -8.79593974 924.26136644 -8.95472173 926.60431512 C-10.7847104 953.60715519 -12.61494895 980.60997831 -14.4453125 1007.61279297 C-14.52381982 1008.77099283 -14.60232714 1009.92919269 -14.68321347 1011.12248952 C-16.47571199 1037.56673962 -18.26840643 1064.01097644 -20.06157494 1090.45518112 C-20.17459422 1092.12190188 -20.17459422 1092.12190188 -20.28989672 1093.82229377 C-21.04202548 1104.91406287 -21.79417908 1116.00583029 -22.54637436 1127.09759489 C-24.16092925 1150.90572893 -25.77492212 1174.71390089 -27.3877908 1198.52214922 C-28.56191585 1215.85384789 -29.73665266 1233.185505 -30.91203715 1250.5171183 C-31.61008446 1260.81051078 -32.30760246 1271.10393882 -33.00437387 1281.39741775 C-33.46981377 1288.27267238 -33.93592404 1295.14788136 -34.40257686 1302.02305377 C-34.66837106 1305.93928242 -34.93387189 1309.85553034 -35.19854744 1313.77183476 C-35.43963078 1317.3389785 -35.68157852 1320.90606255 -35.92419583 1324.47310228 C-36.05165596 1326.35028195 -36.17821009 1328.22752307 -36.30471981 1330.10476702 C-36.80263757 1337.40941238 -37.36971509 1344.70557628 -38 1352 C-29.94727659 1346.65027615 -21.93089554 1341.25059021 -13.9375 1335.8125 C-1.26795576 1327.20255851 11.42590541 1318.62877995 24.125 1310.0625 C25.02807892 1309.45306549 25.93115784 1308.84363098 26.86160278 1308.21572876 C35.91329419 1302.10772199 44.97123763 1296.00992617 54.0625 1289.9609375 C60.264733 1285.83398093 66.44788123 1281.67992389 72.6171875 1277.50390625 C92.91108651 1263.76881606 113.27636617 1250.15294924 133.75488281 1236.69458008 C146.07762477 1228.59485189 158.3636444 1220.44233033 170.625 1212.25 C185.35838117 1202.40870696 200.14228247 1192.65280132 215 1183 C216.73961839 1181.86854349 218.4792029 1180.73703487 220.21875 1179.60546875 C223.47837651 1177.48576027 226.73894216 1175.36750562 230 1173.25 C235.56781727 1169.6331459 241.12740453 1166.00370829 246.6875 1162.375 C262.50921259 1152.05416204 278.37776548 1141.81445903 294.32910156 1131.69482422 C296.79073715 1130.13278818 299.25091112 1128.56847466 301.7109375 1127.00390625 C330.88745229 1108.47779128 360.31562651 1089.94682087 391 1074 C391.67305176 1073.64131836 392.34610352 1073.28263672 393.03955078 1072.91308594 C407.16627144 1065.48650922 422.02193465 1066.88685252 437 1071 C445.86426416 1074.24450262 452.36531666 1078.63276696 457.0859375 1086.90234375 C459.50730261 1092.33375447 460.09847509 1098.17330605 459 1104 C457.13554583 1108.04530056 454.70026489 1111.47007357 452 1115 C451.38640625 1115.81082031 450.7728125 1116.62164063 450.140625 1117.45703125 C448.14125318 1120.01407909 446.08230541 1122.5100475 444 1125 C443.17628906 1125.99773437 442.35257813 1126.99546875 441.50390625 1128.0234375 C435.54923652 1135.18723843 429.31349119 1142.04665377 422.94140625 1148.83984375 C420.6333862 1151.30527849 418.38853274 1153.81297783 416.1875 1156.375 C413.34628345 1159.67221427 410.31804922 1162.72740075 407.1875 1165.75 C405.34151368 1167.64872879 403.62737338 1169.58407937 401.90625 1171.59375 C396.51998595 1177.79541863 390.58406477 1183.45955708 384.73828125 1189.22265625 C383.84496094 1190.10824219 382.95164062 1190.99382812 382.03125 1191.90625 C381.23267578 1192.69322266 380.43410156 1193.48019531 379.61132812 1194.29101562 C377.64806207 1196.32770226 375.8098378 1198.37210868 373.97631836 1200.51928711 C368.73210932 1206.55870686 363.00574661 1212.13810087 357.34765625 1217.78515625 C356.12114646 1219.01234122 354.89478502 1220.23967447 353.66856384 1221.46714783 C351.10919472 1224.02798381 348.54804507 1226.58702171 345.9855957 1229.14477539 C342.71989492 1232.40477954 339.45870525 1235.66925365 336.19884586 1238.93509769 C333.67061373 1241.46696285 331.13998061 1243.99641744 328.60864067 1246.52517509 C327.40596808 1247.72718599 326.20402291 1248.92992519 325.0028553 1250.13344002 C319.35231141 1255.79260374 313.70822994 1261.40344985 307.62205505 1266.60032654 C305.42358181 1268.49739203 303.37955673 1270.52435526 301.34375 1272.59375 C300.54839844 1273.39683594 299.75304688 1274.19992187 298.93359375 1275.02734375 C298.13050781 1275.84332031 297.32742188 1276.65929688 296.5 1277.5 C291.4456808 1282.63544792 286.37580329 1287.65193245 280.90722656 1292.34667969 C277.73046054 1295.10052755 274.68491845 1297.99276729 271.625 1300.875 C267.29019748 1304.94292103 262.93779556 1308.98148347 258.5 1312.9375 C255.11087723 1315.963103 251.88094208 1319.09097508 248.69921875 1322.33203125 C246.92332126 1324.07526856 245.07754251 1325.69408036 243.1875 1327.3125 C239.13967662 1330.79660329 235.41195451 1334.54988456 231.6875 1338.375 C229.63748433 1340.37734089 227.5805116 1342.23615009 225.40625 1344.09375 C219.81961918 1348.93619548 214.68875171 1354.24074438 209.5 1359.5 C207.51349704 1361.51349523 205.523424 1363.52336722 203.53125 1365.53125 C202.22510742 1366.85479492 202.22510742 1366.85479492 200.89257812 1368.20507812 C198.72280774 1370.35006714 196.46163004 1372.35782022 194.15258789 1374.35180664 C189.93286598 1378.01126912 185.96980462 1381.88565483 182.02734375 1385.83984375 C181.30059952 1386.56563126 180.57385529 1387.29141876 179.8250885 1388.03919983 C178.30037704 1389.56323556 176.7769085 1391.08851569 175.25463867 1392.61499023 C172.94366109 1394.93132463 170.62739229 1397.24227078 168.31054688 1399.55273438 C166.8199918 1401.04395034 165.329747 1402.53547653 163.83984375 1404.02734375 C162.81611916 1405.048032 162.81611916 1405.048032 161.77171326 1406.08934021 C157.8937757 1409.98595857 154.21525975 1413.99470369 150.62257385 1418.15504456 C148.35920226 1420.72862217 145.97114234 1423.12343806 143.53125 1425.53125 C142.80524597 1426.2515741 142.80524597 1426.2515741 142.0645752 1426.9864502 C140.03700354 1428.99799879 138.00337151 1431.00337653 135.97021484 1433.00927734 C130.62001671 1438.29420821 125.35597452 1443.58791998 120.46679688 1449.31054688 C118.42608901 1451.6610293 116.22935224 1453.82931492 114 1456 C110.37118478 1459.58489612 106.9593714 1463.262936 103.64453125 1467.13671875 C101.99601248 1469.00451793 100.27696419 1470.75455624 98.5 1472.5 C96.20673964 1474.75797943 94.03571972 1477.05996504 91.9375 1479.5 C88.43887803 1483.55934919 84.78982083 1487.46647149 81.125 1491.375 C75.67799071 1497.18767164 70.30544012 1503.05750891 65 1509 C63.45875549 1510.70871421 61.9170847 1512.41704401 60.375 1514.125 C55.58865258 1519.44682518 50.8633524 1524.81512535 46.21484375 1530.2578125 C45.18492521 1531.46356676 44.15497647 1532.66929523 43.125 1533.875 C42.60534668 1534.48351807 42.08569336 1535.09203613 41.55029297 1535.71899414 C38.52107467 1539.25623858 35.44851417 1542.74392577 32.3125 1546.1875 C28.46148995 1550.42708043 24.85156045 1554.82932112 21.25 1559.28125 C19.06498431 1561.92147729 16.80828609 1564.4672972 14.5 1567 C10.63785433 1571.2430147 6.99245691 1575.62342866 3.3828125 1580.08203125 C0.79243798 1583.2541784 -1.84697367 1586.38030561 -4.5 1589.5 C-9.40476016 1595.27626713 -14.22144686 1601.11870383 -19 1607 C-20.02064434 1608.25015432 -21.04149067 1609.50014375 -22.0625 1610.75 C-28.6854305 1618.86674294 -35.22277688 1627.04325861 -41.67041016 1635.29980469 C-43.43129235 1637.55150936 -45.20000412 1639.79700297 -46.96850586 1642.04272461 C-56.90117127 1654.66018678 -66.76923745 1667.33028516 -76.53027344 1680.08105469 C-77.62633083 1681.51211966 -78.72351815 1682.94231935 -79.82128906 1684.37207031 C-87.61965622 1694.53242459 -95.33975009 1704.72112278 -102.71777344 1715.19091797 C-105.22488608 1718.72818085 -107.77146948 1722.23706839 -110.3125 1725.75 C-110.86276855 1726.51183594 -111.41303711 1727.27367188 -111.97998047 1728.05859375 C-114.6996632 1731.82321138 -117.42382542 1735.58446346 -120.15625 1739.33984375 C-134.86770087 1759.58437254 -148.96727154 1780.25155635 -162.96777344 1800.99121094 C-164.65468457 1803.48874731 -166.34588573 1805.98327441 -168.0390625 1808.4765625 C-172.3817845 1814.89951627 -176.4957425 1821.42289683 -180.5 1828.0625 C-185.29758107 1836.00358454 -190.45169054 1843.5677332 -196 1851 C-196.40573242 1851.54994629 -196.81146484 1852.09989258 -197.22949219 1852.66650391 C-221.16784962 1885.04308488 -221.16784962 1885.04308488 -239 1889 C-253.78688533 1890.87312555 -267.31158353 1885.89160312 -279 1877 C-286.64087209 1870.95251603 -293.97967712 1864.70267638 -300 1857 C-300.75410156 1856.05898437 -301.50820313 1855.11796875 -302.28515625 1854.1484375 C-321.40593764 1830.02608593 -335.03556771 1802.63921456 -348.09320068 1774.92034912 C-348.98446752 1773.03289348 -349.8810714 1771.14807995 -350.77978516 1769.26416016 C-368.87099834 1731.32662551 -382.68664591 1692.66813703 -389 1651 C-389.11859375 1650.2678125 -389.2371875 1649.535625 -389.359375 1648.78125 C-392.55590539 1628.68877328 -394.81605717 1602.75432122 -386 1584 C-385.4440918 1582.73881348 -385.4440918 1582.73881348 -384.87695312 1581.45214844 C-369.97582596 1547.65978186 -347.94288978 1517.73358719 -325 1489 C-324.31679688 1488.13375 -323.63359375 1487.2675 -322.9296875 1486.375 C-320.1816303 1482.90376985 -317.42316359 1479.47704466 -314.484375 1476.1640625 C-279.35524824 1436.55551077 -264.88171872 1381.70945517 -255.75 1330.8125 C-255.51587402 1329.52150391 -255.28174805 1328.23050781 -255.04052734 1326.90039062 C-250.96540408 1303.70007425 -249.21985999 1280.14253837 -247.29560709 1256.6873095 C-247.02928212 1253.44934369 -246.75984229 1250.21163978 -246.49042022 1246.97393042 C-245.68184728 1237.25704735 -244.88121687 1227.53952047 -244.08291626 1217.82178879 C-243.62057677 1212.1940196 -243.15666227 1206.56638079 -242.69262695 1200.93875122 C-235.33917744 1111.72817187 -228.21014302 1022.50009906 -188.4375 449.8125 C-188.37600108 448.82050299 -188.31450216 447.82850598 -188.25113964 446.80644846 C-186.53663373 419.14235347 -184.84466525 391.47691694 -183.17017651 363.81037235 C-182.99506558 360.91851074 -182.8197254 358.02666311 -182.64432526 355.13481903 C-181.92573072 343.28564528 -181.21021227 331.4362918 -180.49894905 319.58667564 C-180.27532919 315.86201814 -180.05069694 312.13742392 -179.82516289 308.41288185 C-179.56337535 304.08807929 -179.30394216 299.76314185 -179.04634547 295.4380877 C-178.95190892 293.85876337 -178.85667017 292.27948677 -178.76055455 290.70026374 C-178.62903338 288.53689022 -178.50050215 286.3733583 -178.37269592 284.20976257 C-178.30027207 283.00315318 -178.22784822 281.79654379 -178.15322971 280.55337048 C-177.77871948 271.86854314 -177.63249785 264.32964563 -183.1875 257.1875 C-191.44949932 250.76150053 -199.63713605 249.01900237 -210 250 C-214.34767429 251.14053085 -218.40333811 252.79872946 -222.5390625 254.546875 C-223.71790512 255.02521286 -224.89674774 255.50355072 -226.11131287 255.99638367 C-228.64208552 257.02333162 -231.16711713 258.06289326 -233.68826294 259.11325073 C-237.68545311 260.77849933 -241.69408088 262.41485927 -245.70483398 264.04711914 C-250.502773 266.0019181 -255.29790447 267.96329993 -260.08920193 269.93432331 C-271.02600309 274.43329975 -282.00172902 278.83282296 -292.98727417 283.21133423 C-296.07182689 284.44121885 -299.15533465 285.67368781 -302.23852539 286.90698242 C-338.73569988 301.50442923 -375.32586007 315.85303834 -412 330 C-412.81212952 330.31346375 -413.62425903 330.62692749 -414.46099854 330.94989014 C-535.34343421 377.60151592 -535.34343421 377.60151592 -588.3125 392.75 C-589.01085968 392.95096283 -589.70921936 393.15192566 -590.42874146 393.35897827 C-615.80980369 400.61703763 -615.80980369 400.61703763 -628.5625 400.4375 C-629.3992627 400.42702637 -630.23602539 400.41655273 -631.09814453 400.40576172 C-668.82667093 399.34899906 -715.01599049 380.74303624 -744.6875 357.0625 C-745.21601562 356.64339355 -745.74453125 356.22428711 -746.2890625 355.79248047 C-747.86641892 354.53712037 -749.43340458 353.26876359 -751 352 C-752.38638672 350.90365234 -752.38638672 350.90365234 -753.80078125 349.78515625 C-761.19369366 343.86868655 -768.13823451 337.51633168 -775 331 C-775.95132813 330.1028125 -776.90265625 329.205625 -777.8828125 328.28125 C-798.04897855 308.74707206 -815.41515246 283.48527773 -816.47338867 254.64477539 C-816.60918115 242.10577249 -814.51981372 232.38246531 -805.50390625 223.12890625 C-801.66982744 219.86904205 -797.65646022 217.83849895 -793 216 C-792.030625 215.566875 -791.06125 215.13375 -790.0625 214.6875 C-781.34817983 212.73122404 -772.06231243 214.29270611 -763.3125 215.390625 C-760.83431416 215.6894071 -758.35612388 215.98815237 -755.87792969 216.28686523 C-753.9483844 216.52311111 -753.9483844 216.52311111 -751.9798584 216.76412964 C-745.24424333 217.58863715 -738.50505839 218.38318559 -731.765625 219.17578125 C-731.0923542 219.25505922 -730.4190834 219.3343372 -729.72541046 219.41601753 C-717.08035182 220.90200708 -704.42580944 222.24272477 -691.75 223.4375 C-690.89519043 223.52076538 -690.04038086 223.60403076 -689.15966797 223.68981934 C-670.78783078 225.46886433 -654.43304686 225.00875342 -636.375 221.1875 C-634.40200026 220.78004765 -632.42893561 220.3729095 -630.45581055 219.96606445 C-543.59192032 201.88518747 -459.27134149 174.45999056 -313.22558594 109.56201172 C-309.3266327 107.67391735 -305.41002621 105.8252525 -301.48999023 103.98144531 C-291.82735117 99.43113708 -282.3511222 94.6053421 -272.93652344 89.56396484 C-270.13629685 88.07259043 -267.32941903 86.59475415 -264.51985168 85.12109375 C-249.25478067 77.11349609 -234.17188798 68.92094541 -219.3359375 60.13671875 C-214.52294128 57.28970329 -209.65362018 54.5620711 -204.75 51.875 C-184.47085058 40.78152865 -184.47085058 40.78152865 -166 27 C-110.94959975 -19.51781677 -68.93563193 -22.13345555 0 0 Z " fill="#3F82F3" transform="translate(816,741)"/>
<path d="M0 0 C2.34500065 1.05075627 4.6927635 2.09506995 7.04144287 3.13757324 C23.46859751 10.44338137 39.14468042 17.97746305 53.41888428 29.0838623 C53.97253662 29.50893066 54.52618896 29.93399902 55.09661865 30.37194824 C58.29353583 32.84484591 61.37013683 35.43169989 64.41888428 38.0838623 C65.65445068 39.10286621 65.65445068 39.10286621 66.91497803 40.14245605 C84.05053367 54.71168823 97.10306764 75.49750252 99.41888428 98.0838623 C101.4091132 125.66773688 89.10705648 149.79427812 71.86907959 170.41052246 C69.49179714 173.15360225 66.98391868 175.76809081 64.48138428 178.3963623 C52.41544327 191.17286615 43.59479479 206.31218277 34.90472412 221.49108887 C33.59482719 223.77684394 32.26901875 226.05232372 30.93841553 228.3260498 C-8.3103333 296.24145574 -29.22574891 373.52361284 -52.60906982 447.86309814 C-59.46325891 469.65189459 -66.46284985 491.39206303 -73.51981258 513.11589718 C-77.90581609 526.61902904 -82.26247029 540.13128504 -86.52639771 553.67352104 C-86.97624601 555.10068439 -87.42749903 556.5274058 -87.88021851 557.95366096 C-88.50612476 559.92731185 -89.12642803 561.90263588 -89.74517822 563.87854004 C-90.10047607 565.00654526 -90.45577393 566.13455048 -90.82183838 567.29673767 C-91.71253787 570.08483207 -91.71253787 570.08483207 -91.58111572 573.0838623 C-90.2231269 574.44095404 -90.2231269 574.44095404 -88.35455322 575.6151123 C-87.65950684 576.09013184 -86.96446045 576.56515137 -86.24835205 577.05456543 C-85.11369507 577.81156738 -85.11369507 577.81156738 -83.95611572 578.5838623 C-82.38252411 579.66432191 -80.81093652 580.74770545 -79.24127197 581.8338623 C-78.45252686 582.37913574 -77.66378174 582.92440918 -76.85113525 583.48620605 C-54.19966291 599.42847697 -24.94896899 620.99679675 -18.82720947 649.6072998 C-18.09567661 656.21419662 -18.37050684 662.15849148 -21.58111572 668.0838623 C-25.54591533 673.01307263 -30.38872459 675.85083743 -36.58111572 677.0838623 C-38.60877792 677.21110971 -40.6398169 677.28792349 -42.67095947 677.33337402 C-43.91168716 677.36378784 -45.15241486 677.39420166 -46.43074036 677.42553711 C-47.09484987 677.43979233 -47.75895939 677.45404755 -48.44319344 677.46873474 C-50.55630548 677.51436365 -52.6692099 677.56569233 -54.78215027 677.61865234 C-57.80730101 677.69441518 -60.83248278 677.76865554 -63.85769653 677.84185791 C-92.48938401 678.54322767 -121.04244517 679.56214999 -149.58111572 682.0838623 C-150.36017273 682.1519812 -151.13922974 682.2201001 -151.94189453 682.2902832 C-170.42716663 683.92021814 -188.79670892 686.20013564 -207.16293967 688.84213078 C-234.87713622 692.81635612 -262.6479119 696.27239032 -290.43959069 699.65390325 C-296.33043028 700.37166584 -302.22072285 701.09388627 -308.1110194 701.81608873 C-319.78336511 703.24712508 -331.45612321 704.67476503 -343.12921143 706.09973145 C-344.16365786 706.22601055 -344.16365786 706.22601055 -345.21900221 706.35484075 C-346.61432317 706.52517212 -348.00964415 706.69550336 -349.40496514 706.86583447 C-350.09648778 706.95025131 -350.78801041 707.03466814 -351.50048828 707.12164307 C-352.1924078 707.20610781 -352.88432732 707.29057255 -353.59721409 707.37759683 C-361.29318998 708.31712644 -368.98905187 709.25758823 -376.68487549 710.19836426 C-377.37512309 710.28274264 -378.0653707 710.36712103 -378.77653489 710.45405633 C-390.43009806 711.87870857 -402.08341609 713.30535891 -413.73660916 714.73303503 C-421.45276509 715.67824229 -429.16924704 716.62073908 -436.88598198 717.56120747 C-461.9290602 720.61496659 -486.96024718 723.72585116 -511.95675373 727.14275455 C-537.90023216 730.6767975 -563.87922661 733.29982925 -590.08111572 733.2713623 C-590.85716156 733.27175507 -591.6332074 733.27214783 -592.43276978 733.27255249 C-608.24244761 733.26303066 -623.93453205 732.45326311 -639.58111572 730.0838623 C-639.65588135 730.6201123 -639.73064697 731.1563623 -639.80767822 731.7088623 C-643.80039088 755.50856131 -657.29236323 781.43039142 -676.58111572 796.0838623 C-685.45907546 801.2590981 -694.95027057 802.36679489 -704.89361572 799.9588623 C-736.52012888 790.46219582 -757.61185268 752.67219488 -772.33892822 725.3651123 C-773.08997432 723.93994666 -773.83712631 722.51272448 -774.58111572 721.0838623 C-775.01134033 720.26144043 -775.44156494 719.43901855 -775.88482666 718.5916748 C-788.5954825 693.98225739 -797.93236397 667.16464531 -800.44689274 639.46039009 C-802.15624119 620.9836263 -805.90961637 602.97005857 -809.62350011 584.81553125 C-810.57493346 580.14832582 -811.51087479 575.47801512 -812.44816589 570.80795288 C-814.83290877 558.93879928 -817.23737387 547.07367282 -819.64361572 535.2088623 C-822.79410338 519.67255878 -825.93592014 504.13456426 -829.05377197 488.5916748 C-829.24332034 487.64754077 -829.4328687 486.70340674 -829.62816095 485.73066258 C-835.77929449 455.07202826 -841.28918912 424.38074629 -846.07925892 393.48016262 C-853.45381864 346.34055175 -862.97721209 298.50573907 -880.06939697 253.82727051 C-881.55595128 249.93827736 -882.92955285 246.05044028 -884.14752197 242.0682373 C-891.71381359 217.45179847 -904.44257803 196.78248199 -921.30230713 177.54626465 C-922.46180005 176.22030768 -923.60633518 174.88130759 -924.74908447 173.54089355 C-936.90096674 159.56508899 -951.13530123 146.76084306 -967.22564697 137.5213623 C-971.26800766 135.05438265 -974.96631577 132.13685286 -978.58111572 129.0838623 C-979.15088135 128.67909668 -979.72064697 128.27433105 -980.30767822 127.8572998 C-982.37815496 124.97387515 -982.06658027 121.81402649 -982.01861572 118.3963623 C-982.01104248 117.64467773 -982.00346924 116.89299316 -981.9956665 116.11853027 C-981.60190043 102.37120818 -977.75431274 88.56329291 -968.33111572 78.2088623 C-955.51103924 66.53393426 -937.92815772 66.41573416 -921.58111572 67.0838623 C-920.39517822 67.13171875 -919.20924072 67.1795752 -917.98736572 67.22888184 C-878.92299874 68.94283094 -839.80988094 73.95508085 -803.06939697 87.90808105 C-802.4072821 88.15775131 -801.74516724 88.40742157 -801.06298828 88.66465759 C-797.76348285 89.91001223 -794.47380124 91.17361763 -791.19683838 92.47717285 C-789.98173584 92.94292725 -788.7666333 93.40868164 -787.51470947 93.8885498 C-786.44277344 94.31120117 -785.3708374 94.73385254 -784.26641846 95.16931152 C-775.60136972 97.31964425 -766.50158926 95.93106414 -757.72564697 94.9822998 C-756.04775589 94.80727936 -756.04775589 94.80727936 -754.33596802 94.62872314 C-750.68775498 94.245606 -747.04064603 93.85307 -743.39361572 93.4588623 C-741.50058212 93.25628815 -741.50058212 93.25628815 -739.56930542 93.04962158 C-669.33421461 85.52425561 -599.58750646 75.28965333 -530.58111572 60.0838623 C-529.45330688 59.83595947 -528.32549805 59.58805664 -527.16351318 59.3326416 C-446.17873616 41.51842061 -367.14369 19.52925369 -246.60845947 -33.8223877 C-234.1567428 -39.89725345 -221.69962387 -45.43272815 -208.58111572 -49.9161377 C-207.8144458 -50.18716309 -207.04777588 -50.45818848 -206.25787354 -50.73742676 C-142.70993038 -72.65145636 -57.03586366 -25.60920272 0 0 Z M-440.0949707 168.30654907 C-507.24291324 182.30123439 -574.95003183 194.02433378 -642.84710693 203.69390869 C-646.94920209 204.27899343 -651.05027305 204.87113845 -655.15142822 205.46276855 C-661.29314502 206.34724244 -667.43614508 207.22227052 -673.58111572 208.0838623 C-673.76905749 230.01040146 -671.84014324 251.70895916 -669.38970947 273.47839355 C-669.22879444 274.91876134 -669.22879444 274.91876134 -669.0646286 276.38822746 C-666.73830789 297.18219492 -664.16458291 317.9442119 -661.57074547 338.70618248 C-651.50165728 419.33128556 -641.82727698 500.23334302 -636.42926025 581.33068848 C-636.37704819 582.10489136 -636.32483612 582.87909424 -636.27104187 583.67675781 C-636.13542851 585.70700145 -636.00489085 587.73758242 -635.87481689 589.76818848 C-635.62254115 592.61619919 -635.21425835 595.29956038 -634.58111572 598.0838623 C-545.34324092 589.50203881 -456.81912263 574.07394654 -369.7538147 552.7817688 C-368.72744904 552.53083466 -367.70108337 552.27990051 -366.64361572 552.0213623 C-365.62313141 551.77179779 -364.60264709 551.52223328 -363.55123901 551.2651062 C-347.24199278 547.29188885 -330.87117689 543.78641926 -314.39361572 540.5838623 C-313.35609161 540.38203339 -312.3185675 540.18020447 -311.24960327 539.97225952 C-296.72494727 537.16053529 -282.16439442 534.57219689 -267.58111572 532.0838623 C-265.82786021 524.62605129 -264.54158685 517.13537765 -263.33111572 509.57214355 C-263.11488593 508.2307732 -262.89855412 506.88941928 -262.68212891 505.54808044 C-261.97654638 501.16500657 -261.27834723 496.78077118 -260.58111572 492.3963623 C-260.46077469 491.64086594 -260.34043365 490.88536957 -260.21644592 490.10697937 C-246.3719608 403.16650892 -234.74286845 316.0216779 -229.58111572 228.0838623 C-229.47307617 226.25323242 -229.47307617 226.25323242 -229.362854 224.38562012 C-228.98110764 217.61949491 -228.72009187 210.85921878 -228.58111572 204.0838623 C-228.54026855 202.19063232 -228.54026855 202.19063232 -228.49859619 200.25915527 C-228.42900666 196.7676947 -228.38333498 193.27645882 -228.35195923 189.78445435 C-228.33179319 187.77632472 -228.29907954 185.76833324 -228.26593018 183.76037598 C-228.23190791 173.86760005 -229.14522111 164.99081854 -235.58111572 157.0838623 C-245.73590134 147.1652345 -259.18579952 145.694295 -272.83111572 145.7713623 C-274.48554687 145.77982178 -274.48554687 145.77982178 -276.17340088 145.78845215 C-331.41127392 146.54781314 -386.19723672 157.05284869 -440.0949707 168.30654907 Z " fill="#3F82F3" transform="translate(2231.5811157226563,1184.9161376953125)"/>
<path d="M0 0 C0.95737061 0.00757324 1.91474121 0.01514648 2.90112305 0.02294922 C16.54406227 0.31932323 30.03759151 2.34409878 43.5 4.4375 C44.74394531 4.63053711 45.98789063 4.82357422 47.26953125 5.02246094 C67.41937958 8.23483204 87.39378887 12.38608702 107.375 16.5 C108.6193985 16.75539551 109.863797 17.01079102 111.14590454 17.27392578 C152.12807424 25.70764253 152.12807424 25.70764253 168.375 31.9375 C169.49084473 32.359104 170.60668945 32.78070801 171.75634766 33.21508789 C248.65130905 62.69379764 248.65130905 62.69379764 259.125 85.375 C261.66508005 93.00699979 260.33342246 99.14672266 257.125 106.375 C242.57139342 133.09077545 205.73684297 143.77908736 178.57659912 151.83343506 C155.86020936 158.44143875 133.10761536 163.47244155 109.63143921 166.4079895 C98.56321736 167.79241091 87.51340101 169.31461109 76.46330738 170.83585835 C71.86630487 171.46814549 67.26764922 172.08702526 62.66821289 172.70141602 C18.47848023 178.67501488 -25.36183359 186.51663163 -69.07775879 195.26660538 C-74.79754401 196.40892133 -80.51934478 197.54101795 -86.24120998 198.67286241 C-97.41669599 200.88353177 -108.59119013 203.09916206 -119.76482487 205.31916869 C-149.65674184 211.25815898 -179.5508852 217.18578821 -209.45134354 223.0816412 C-218.24207019 224.81532096 -227.03201803 226.55275322 -235.81994629 228.30056763 C-412.27137939 263.38782302 -412.27137939 263.38782302 -476.65625 263.640625 C-477.8655719 263.64763931 -479.0748938 263.65465363 -480.32086182 263.66188049 C-484.21394619 263.6793051 -488.10687802 263.68573535 -492 263.6875 C-492.99804405 263.68816278 -492.99804405 263.68816278 -494.01625061 263.68883896 C-560.93014732 263.71210946 -646.02512781 258.60016578 -697.25 210.0625 C-704.07938838 203.07789824 -707.58730969 196.12929616 -707.8125 186.375 C-707.66858791 175.65354903 -704.43592559 168.39679149 -696.9765625 160.71875 C-674.98933453 140.46553055 -641.60915364 136.34211477 -613.0625 133.1875 C-612.31512573 133.10450653 -611.56775146 133.02151306 -610.79772949 132.93600464 C-603.73446535 132.16341766 -596.69947633 131.4909215 -589.6006794 131.15124416 C-580.69960016 130.70492509 -572.06575824 129.58487475 -563.29296875 127.98046875 C-561.84414023 127.72262976 -560.39519693 127.46543504 -558.94615173 127.20881653 C-555.01627169 126.50926044 -551.08913707 125.79534069 -547.1626358 125.0770874 C-544.65679378 124.61939146 -542.15034973 124.16512902 -539.64373779 123.71166992 C-471.67100456 111.39967005 -403.83872845 97.85849543 -336.5 82.4375 C-335.82955406 82.28414688 -335.15910812 82.13079376 -334.46834564 81.97279358 C-257.76257958 64.4231344 -181.09341022 45.74484562 -105.58203125 23.5546875 C-104.86483917 23.34400635 -104.14764709 23.1333252 -103.40872192 22.91625977 C-102.71664642 22.71282959 -102.02457092 22.50939941 -101.31152344 22.29980469 C-84.9168222 17.48178212 -68.38158689 13.42267637 -51.75 9.5 C-50.55460602 9.21796722 -49.35921204 8.93593445 -48.12759399 8.64535522 C-40.59307924 6.87351059 -33.05216103 5.13260365 -25.5 3.4375 C-24.70142578 3.25796783 -23.90285156 3.07843567 -23.08007812 2.89346313 C-15.34670613 1.17766449 -7.9315115 -0.09446738 0 0 Z " fill="#3F82F3" transform="translate(1996.5,684.5625)"/>
<path d="M0 0 C1.04750931 0.00323273 1.04750931 0.00323273 2.11618042 0.00653076 C44.85347979 0.21517306 86.90808769 7.81831332 128.34387207 17.7512207 C130.56542684 18.2832645 132.78788158 18.81133288 135.01074219 19.33789062 C143.11324866 21.26016156 151.20287598 23.23175862 159.28572083 25.23503113 C164.42415057 26.50830037 169.56466569 27.77253878 174.70751953 29.02783203 C257.28261068 49.19270083 339.33703862 72.20252489 416.375 108.6875 C417.85274902 109.38286865 417.85274902 109.38286865 419.36035156 110.09228516 C430.5545637 115.48915076 440.28598994 122.21675523 449.6875 130.3125 C450.48671875 130.99957031 451.2859375 131.68664062 452.109375 132.39453125 C454.6788839 134.65754644 457.19043382 136.96970659 459.6875 139.3125 C460.21214844 139.80314941 460.73679687 140.29379883 461.27734375 140.79931641 C479.10634938 157.61437455 492.3656794 177.14338912 502.6875 199.3125 C502.99574707 199.9720166 503.30399414 200.6315332 503.62158203 201.31103516 C511.87161793 219.27944578 516.37460356 238.72502561 518.6875 258.3125 C518.7817627 259.10712646 518.87602539 259.90175293 518.97314453 260.72045898 C519.85075755 269.09232203 519.93080259 277.4664612 519.9375 285.875 C519.93851212 287.02443085 519.93851212 287.02443085 519.93954468 288.19708252 C519.89049008 323.53381504 514.73644566 363.54783741 490.6875 391.3125 C490.04554688 392.10914063 489.40359375 392.90578125 488.7421875 393.7265625 C475.2447703 409.81389002 455.93103827 418.97459894 435.6875 423.3125 C434.32238281 423.63154297 434.32238281 423.63154297 432.9296875 423.95703125 C395.54175994 431.5327192 357.68389943 422.01155777 324.6875 404.3125 C324.06375488 403.98588379 323.44000977 403.65926758 322.79736328 403.32275391 C297.892314 390.2484085 275.03960916 372.64800313 253.42871094 354.74951172 C250.9059228 352.66746868 248.3565823 350.61843205 245.8125 348.5625 C241.43061084 344.97552627 237.20683238 341.24112065 233.01953125 337.4296875 C230.92926111 335.53198831 228.81763885 333.66516585 226.6875 331.8125 C215.6652968 322.19832275 204.63192635 312.44925107 194.39793396 301.99049377 C192.6936675 300.31855052 190.92733068 298.77361081 189.10961914 297.22631836 C184.10381161 292.86853724 179.43198942 288.20061361 174.74609375 283.50390625 C173.81958511 282.57835434 172.89307648 281.65280243 171.93849182 280.69920349 C169.98967639 278.75185145 168.04265263 276.80273087 166.09692383 274.85229492 C163.62386139 272.37353605 161.14633467 269.89929569 158.66743374 267.4263773 C156.27453799 265.03799855 153.88549682 262.6457792 151.49609375 260.25390625 C150.61674667 259.3765834 149.7373996 258.49926056 148.83140564 257.59535217 C144.44915287 253.19654713 140.20211953 248.74397128 136.17298889 244.01817322 C133.81474291 241.31037983 131.25720701 238.81748531 128.6875 236.3125 C124.69911994 232.37859416 120.89586942 228.37317595 117.26171875 224.10546875 C115.6398281 222.25820371 113.94089795 220.53493286 112.1875 218.8125 C109.89423964 216.55452057 107.72321972 214.25253496 105.625 211.8125 C102.08915895 207.70739656 98.39417803 203.76251646 94.6875 199.8125 C90.53277751 195.38184 86.4195224 190.93654628 82.45703125 186.33203125 C80.07865503 183.6176372 77.63237646 180.96680875 75.1875 178.3125 C71.54257756 174.35324367 67.94489503 170.36121807 64.421875 166.29296875 C62.41485462 164.00116845 60.36347149 161.75253248 58.3125 159.5 C55.20221149 156.05871795 52.22271688 152.54928702 49.3125 148.9375 C46.0679924 144.92425889 42.7002332 141.08814046 39.1875 137.3125 C34.8775623 132.679989 30.8368906 127.8912805 26.8671875 122.9609375 C24.70992601 120.33974881 22.47439 117.82095719 20.1875 115.3125 C17.16467579 111.99260514 14.26237839 108.61485888 11.4375 105.125 C7.27935078 99.98888886 2.97835917 94.99322944 -1.36523438 90.0144043 C-4.51142529 86.40426953 -7.61790804 82.76673966 -10.68457031 79.08886719 C-14.27835628 74.78192738 -17.91780277 70.60983432 -21.9375 66.6875 C-30.45137595 58.35639062 -41.31276938 47.31007562 -42.6875 34.9375 C-42.52383043 25.06276953 -37.20884103 15.1536703 -30.3125 8.3125 C-20.74156499 0.43853928 -12.03786317 -0.06679863 0 0 Z " fill="#3F82F3" transform="translate(475.3125,21.6875)"/>
<path d="M0 0 C-1.14734954 2.81622161 -2.04810241 4.03727937 -4.5 5.9375 C-8.36652942 10.67399854 -8.41586273 16.04528719 -9 22 C-9.33 22 -9.66 22 -10 22 C-10.57854298 13.11293698 -9.81958259 8.38128591 -3.875 1.5625 C-2 0 -2 0 0 0 Z " fill="#1332C4" transform="translate(1372,228)"/>
<path d="M0 0 C-1.39750048 3.15835107 -3.05198234 5.32272825 -5.5 7.75 C-6.41265625 8.67039062 -6.41265625 8.67039062 -7.34375 9.609375 C-9 11 -9 11 -11 11 C-9.60249952 7.84164893 -7.94801766 5.67727175 -5.5 3.25 C-4.8915625 2.63640625 -4.283125 2.0228125 -3.65625 1.390625 C-2 0 -2 0 0 0 Z " fill="#1F4ACD" transform="translate(1306,841)"/>
<path d="M0 0 C0.66 0 1.32 0 2 0 C0.52278578 3.45201639 -1.43794001 5.64961936 -4.125 8.25 C-4.84945313 8.95640625 -5.57390625 9.6628125 -6.3203125 10.390625 C-6.87460938 10.92171875 -7.42890625 11.4528125 -8 12 C-8 8.24111186 -7.049166 7.58681685 -4.5625 4.875 C-3.92441406 4.17117188 -3.28632812 3.46734375 -2.62890625 2.7421875 C-1.76410115 1.81724008 -0.89538137 0.89538137 0 0 Z " fill="#1A43C4" transform="translate(1267,1260)"/>
<path d="M0 0 C0.66 0.33 1.32 0.66 2 1 C-1.63 4.63 -5.26 8.26 -9 12 C-9 7.8407692 -6.75316432 5.85455565 -4 3 C-1.6875 1.125 -1.6875 1.125 0 0 Z " fill="#133AB0" transform="translate(450,26)"/>
<path d="M0 0 C-1.55603771 3.81936528 -3.95604931 6.26044438 -7 9 C-7.66 9 -8.32 9 -9 9 C-7.45665977 5.21180126 -4.44676575 0 0 0 Z " fill="#1D48CC" transform="translate(15,962)"/>
</svg>
